# xmcd
#
# Track frame offsets:
#	150
#	11683
#	28698
#	43168
#	55188
#	74243
#	84251
#	95746
#	110776
#	124546
#	136146
#	148276
#	161923
#	172828
#	184993
#	196991
#	208546
#	223441
#	234303
#	246506
#
# Disc length: 3541 seconds
#
# Revision: 1
# Processed by: cddbd v1.5.2PL0 Copyright (c) Steve Scherf et al.
# Submitted via: audiograbber 1.83.01
#
DISCID=370dd314
DTITLE=Diverse - Country and Western Festival
DYEAR=2011
DGENRE=Country
TTITLE0=Willie Nelson - Touch me
TTITLE1=Lynn Anderson - Blue Bayou
TTITLE2=Trucks - Achy breaky heart
TTITLE3=Johnny Cash - You´re the nearest Thing to Heaven
TTITLE4=Nitty Gritty Dirt Band - Mr. Bojangles
TTITLE5=Jim Reeves - Just call me lonesome
TTITLE6=Kenny Rogers - Me and Bobby McGhee
TTITLE7=Margo - You`ve got the wrong Woman
TTITLE8=Jerry Lee Lewis - Cold cold heart
TTITLE9=Kathy Mattea - Street talk
TTITLE10=Alabama - Loving you is killing me
TTITLE11=Little Creek Band - Love is like a River
TTITLE12=Don Williams - Spend some time with me
TTITLE13=Boxcar Willie - Hobo Heaven
TTITLE14=Sweethearts of the Rodeo - Hey doll Baby
TTITLE15=Oak Ridge Boys -  No me cared as much
TTITLE16=Tammy Wynette - Crying in the Rain
TTITLE17=Billy Crash Craddock - Heart of Rock´n Roll
TTITLE18=Dolly Parton - Two little orphans
TTITLE19=Romalu - You want be back again
EXTD=
EXTT0=
EXTT1=
EXTT2=
EXTT3=
EXTT4=
EXTT5=
EXTT6=
EXTT7=
EXTT8=
EXTT9=
EXTT10=
EXTT11=
EXTT12=
EXTT13=
EXTT14=
EXTT15=
EXTT16=
EXTT17=
EXTT18=
EXTT19=
PLAYORDER=
